<svg width="30" height="30" viewBox="0 0 30 30" fill="none" xmlns="http://www.w3.org/2000/svg">
<path d="M13.6216 8C16.7276 8 19.2432 9.25784 19.2432 10.8108C19.2432 12.3638 16.7276 13.6216 13.6216 13.6216C10.5157 13.6216 8 12.3638 8 10.8108C8 9.25784 10.5157 8 13.6216 8ZM8 12.2162C8 13.7692 10.5157 15.027 13.6216 15.027C14.4016 15.027 15.1535 14.9497 15.8281 14.8022C15.1605 15.4065 14.6757 16.2005 14.4508 17.107L13.6216 17.1351C10.5157 17.1351 8 15.8773 8 14.3243V12.2162ZM19.2432 12.2162V13.6216H18.8919L18.4703 13.6427C18.9622 13.2211 19.2432 12.7362 19.2432 12.2162ZM8 15.7297C8 17.2827 10.5157 18.5405 13.6216 18.5405L14.3243 18.5195C14.3876 19.2643 14.6195 19.9459 14.9919 20.5643L13.6216 20.6486C10.5157 20.6486 8 19.3908 8 17.8378V15.7297ZM18.5405 15.3784C19.3205 15.3784 20.0232 15.6946 20.5292 16.2005L21.3514 15.3784V18.1892H18.5405L19.7843 16.9454C19.4681 16.6292 19.0254 16.4324 18.5405 16.4324C17.5708 16.4324 16.7838 17.2195 16.7838 18.1892C16.7838 19.1589 17.5708 19.9459 18.5405 19.9459C19.1168 19.9459 19.6227 19.6719 19.9459 19.2432H21.1476C20.733 20.2762 19.7211 21 18.5405 21C16.9876 21 15.7297 19.7422 15.7297 18.1892C15.7297 16.6362 16.9876 15.3784 18.5405 15.3784Z" fill="white"/>
</svg>
