<svg width="18" height="23" viewBox="0 0 18 23" fill="none" xmlns="http://www.w3.org/2000/svg">
<path fill-rule="evenodd" clip-rule="evenodd" d="M6.60016 7.68134C7.34583 7.68134 7.95032 7.07685 7.95032 6.33118C7.95032 5.58551 7.34583 4.98102 6.60016 4.98102C5.85449 4.98102 5.25 5.58551 5.25 6.33118C5.25 7.07685 5.85449 7.68134 6.60016 7.68134ZM11.4007 7.68134C12.1464 7.68134 12.7509 7.07685 12.7509 6.33118C12.7509 5.58551 12.1464 4.98102 11.4007 4.98102C10.6551 4.98102 10.0506 5.58551 10.0506 6.33118C10.0506 7.07685 10.6551 7.68134 11.4007 7.68134ZM12.7509 11.1317C12.7509 11.8774 12.1464 12.4819 11.4007 12.4819C10.6551 12.4819 10.0506 11.8774 10.0506 11.1317C10.0506 10.3861 10.6551 9.78158 11.4007 9.78158C12.1464 9.78158 12.7509 10.3861 12.7509 11.1317ZM6.60016 12.4819C7.34583 12.4819 7.95032 11.8774 7.95032 11.1317C7.95032 10.3861 7.34583 9.78158 6.60016 9.78158C5.85449 9.78158 5.25 10.3861 5.25 11.1317C5.25 11.8774 5.85449 12.4819 6.60016 12.4819ZM12.7509 15.9323C12.7509 16.678 12.1464 17.2825 11.4007 17.2825C10.6551 17.2825 10.0506 16.678 10.0506 15.9323C10.0506 15.1867 10.6551 14.5821 11.4007 14.5821C12.1464 14.5821 12.7509 15.1867 12.7509 15.9323ZM6.60016 17.2825C7.34583 17.2825 7.95032 16.678 7.95032 15.9323C7.95032 15.1867 7.34583 14.5821 6.60016 14.5821C5.85449 14.5821 5.25 15.1867 5.25 15.9323C5.25 16.678 5.85449 17.2825 6.60016 17.2825Z" fill="#9CA3AF"/>
</svg>
