<svg width="323" height="271" viewBox="0 0 323 271" fill="none" xmlns="http://www.w3.org/2000/svg">
<path d="M161.035 68.5V101.5" stroke="#2F2F2F" stroke-dasharray="2 2"/>
<path d="M161.535 168V201" stroke="#2F2F2F" stroke-dasharray="2 2"/>
<g filter="url(#filter0_d_130_3537)">
<rect x="3.07031" y="200.195" width="317" height="67" rx="8" fill="#171717" shape-rendering="crispEdges"/>
<rect x="3.57031" y="200.695" width="316" height="66" rx="7.5" stroke="#2F2F2F" shape-rendering="crispEdges"/>
<rect x="39.0703" y="218.195" width="30" height="30" rx="6" fill="#181E2D"/>
<path d="M49.0703 227.195V240.195L59.2846 233.695L49.0703 227.195Z" fill="#3C82F6"/>
<path d="M83.2192 238.195V228.013H89.6027V229.336H84.7554V232.438H89.2696V233.755H84.7554V236.873H89.6624V238.195H83.2192ZM93.0219 233.661V238.195H91.5354V230.559H92.9623V231.802H93.0567C93.2324 231.397 93.5075 231.072 93.882 230.827C94.2599 230.582 94.7355 230.459 95.3089 230.459C95.8292 230.459 96.2849 230.569 96.676 230.787C97.0671 231.003 97.3704 231.324 97.5858 231.752C97.8013 232.179 97.909 232.708 97.909 233.338V238.195H96.4225V233.517C96.4225 232.963 96.2783 232.531 95.99 232.219C95.7016 231.904 95.3055 231.747 94.8018 231.747C94.4571 231.747 94.1505 231.821 93.882 231.971C93.6169 232.12 93.4064 232.339 93.2506 232.627C93.0982 232.912 93.0219 233.257 93.0219 233.661ZM102.761 238.344C102.145 238.344 101.595 238.187 101.111 237.872C100.63 237.554 100.252 237.101 99.9772 236.515C99.7054 235.925 99.5695 235.217 99.5695 234.392C99.5695 233.567 99.7071 232.861 99.9822 232.274C100.261 231.687 100.642 231.238 101.126 230.927C101.61 230.615 102.158 230.459 102.771 230.459C103.245 230.459 103.626 230.539 103.915 230.698C104.206 230.854 104.432 231.036 104.591 231.245C104.753 231.454 104.879 231.638 104.969 231.797H105.058V228.013H106.545V238.195H105.093V237.007H104.969C104.879 237.169 104.75 237.355 104.581 237.564C104.415 237.772 104.186 237.955 103.895 238.111C103.603 238.266 103.225 238.344 102.761 238.344ZM103.089 237.076C103.517 237.076 103.878 236.964 104.173 236.738C104.472 236.51 104.697 236.193 104.849 235.789C105.005 235.384 105.083 234.914 105.083 234.377C105.083 233.847 105.007 233.383 104.854 232.985C104.702 232.587 104.478 232.277 104.183 232.055C103.888 231.833 103.524 231.722 103.089 231.722C102.642 231.722 102.269 231.838 101.971 232.07C101.672 232.302 101.447 232.619 101.295 233.02C101.146 233.421 101.071 233.873 101.071 234.377C101.071 234.887 101.147 235.346 101.3 235.754C101.452 236.162 101.677 236.485 101.976 236.723C102.277 236.959 102.649 237.076 103.089 237.076Z" fill="white"/>
</g>
<g filter="url(#filter1_d_130_3537)">
<rect x="3.53516" y="101" width="317" height="67" rx="8" fill="#171717" shape-rendering="crispEdges"/>
<rect x="4.03516" y="101.5" width="316" height="66" rx="7.5" stroke="#2F2F2F" shape-rendering="crispEdges"/>
<rect x="39.5352" y="119" width="30" height="30" rx="6" fill="#18251F"/>
<path d="M54.6852 127C55.0299 127 55.3606 127.137 55.6044 127.381C55.8482 127.625 55.9852 127.955 55.9852 128.3C55.9852 128.781 55.7252 129.203 55.3352 129.424V130.25H55.9852C57.1919 130.25 58.3492 130.729 59.2025 131.583C60.0558 132.436 60.5352 133.593 60.5352 134.8H61.1852C61.3575 134.8 61.5229 134.868 61.6448 134.99C61.7667 135.112 61.8352 135.278 61.8352 135.45V137.4C61.8352 137.572 61.7667 137.738 61.6448 137.86C61.5229 137.982 61.3575 138.05 61.1852 138.05H60.5352V138.7C60.5352 139.045 60.3982 139.375 60.1544 139.619C59.9106 139.863 59.5799 140 59.2352 140H50.1352C49.7904 140 49.4597 139.863 49.2159 139.619C48.9721 139.375 48.8352 139.045 48.8352 138.7V138.05H48.1852C48.0128 138.05 47.8474 137.982 47.7255 137.86C47.6036 137.738 47.5352 137.572 47.5352 137.4V135.45C47.5352 135.278 47.6036 135.112 47.7255 134.99C47.8474 134.868 48.0128 134.8 48.1852 134.8H48.8352C48.8352 133.593 49.3145 132.436 50.1678 131.583C51.0211 130.729 52.1784 130.25 53.3852 130.25H54.0352V129.424C53.6452 129.203 53.3852 128.781 53.3852 128.3C53.3852 127.955 53.5221 127.625 53.7659 127.381C54.0097 127.137 54.3404 127 54.6852 127ZM51.7602 134.15C51.3292 134.15 50.9159 134.321 50.6111 134.626C50.3064 134.931 50.1352 135.344 50.1352 135.775C50.1352 136.206 50.3064 136.619 50.6111 136.924C50.9159 137.229 51.3292 137.4 51.7602 137.4C52.1911 137.4 52.6045 137.229 52.9092 136.924C53.214 136.619 53.3852 136.206 53.3852 135.775C53.3852 135.344 53.214 134.931 52.9092 134.626C52.6045 134.321 52.1911 134.15 51.7602 134.15ZM57.6102 134.15C57.1792 134.15 56.7659 134.321 56.4611 134.626C56.1564 134.931 55.9852 135.344 55.9852 135.775C55.9852 136.206 56.1564 136.619 56.4611 136.924C56.7659 137.229 57.1792 137.4 57.6102 137.4C58.0411 137.4 58.4545 137.229 58.7592 136.924C59.064 136.619 59.2352 136.206 59.2352 135.775C59.2352 135.344 59.064 134.931 58.7592 134.626C58.4545 134.321 58.0411 134.15 57.6102 134.15Z" fill="#22C55D"/>
<path d="M84.574 128.818L87.4078 137.111H87.5221L90.3559 128.818H92.0164L88.3524 139H86.5775L82.9134 128.818H84.574ZM93.3675 139V131.364H94.854V139H93.3675ZM94.1182 130.185C93.8596 130.185 93.6376 130.099 93.452 129.927C93.2697 129.751 93.1785 129.542 93.1785 129.3C93.1785 129.055 93.2697 128.846 93.452 128.674C93.6376 128.498 93.8596 128.411 94.1182 128.411C94.3767 128.411 94.5971 128.498 94.7794 128.674C94.965 128.846 95.0578 129.055 95.0578 129.3C95.0578 129.542 94.965 129.751 94.7794 129.927C94.5971 130.099 94.3767 130.185 94.1182 130.185ZM99.7124 139.149C99.096 139.149 98.5458 138.992 98.0619 138.677C97.5813 138.359 97.2035 137.906 96.9284 137.32C96.6566 136.73 96.5207 136.022 96.5207 135.197C96.5207 134.371 96.6582 133.665 96.9333 133.079C97.2117 132.492 97.5929 132.043 98.0768 131.732C98.5607 131.42 99.1092 131.264 99.7224 131.264C100.196 131.264 100.578 131.344 100.866 131.503C101.158 131.659 101.383 131.841 101.542 132.05C101.704 132.259 101.83 132.442 101.92 132.602H102.009V128.818H103.496V139H102.044V137.812H101.92C101.83 137.974 101.701 138.16 101.532 138.369C101.366 138.577 101.138 138.76 100.846 138.915C100.554 139.071 100.176 139.149 99.7124 139.149ZM100.041 137.881C100.468 137.881 100.829 137.769 101.124 137.543C101.423 137.315 101.648 136.998 101.801 136.594C101.956 136.189 102.034 135.719 102.034 135.182C102.034 134.652 101.958 134.187 101.805 133.79C101.653 133.392 101.429 133.082 101.134 132.86C100.839 132.638 100.475 132.527 100.041 132.527C99.5931 132.527 99.2203 132.643 98.922 132.875C98.6237 133.107 98.3983 133.424 98.2458 133.825C98.0967 134.226 98.0221 134.678 98.0221 135.182C98.0221 135.692 98.0983 136.151 98.2508 136.559C98.4033 136.967 98.6286 137.29 98.9269 137.528C99.2285 137.764 99.5998 137.881 100.041 137.881ZM108.909 139.154C108.156 139.154 107.508 138.993 106.965 138.672C106.425 138.347 106.007 137.891 105.712 137.305C105.42 136.715 105.274 136.024 105.274 135.232C105.274 134.449 105.42 133.76 105.712 133.163C106.007 132.567 106.418 132.101 106.945 131.766C107.475 131.432 108.095 131.264 108.804 131.264C109.235 131.264 109.653 131.335 110.057 131.478C110.461 131.621 110.824 131.844 111.146 132.149C111.467 132.454 111.721 132.85 111.907 133.337C112.092 133.821 112.185 134.41 112.185 135.102V135.629H106.115V134.516H110.728C110.728 134.125 110.649 133.778 110.49 133.477C110.331 133.172 110.107 132.931 109.818 132.756C109.533 132.58 109.199 132.492 108.814 132.492C108.397 132.492 108.032 132.595 107.72 132.8C107.412 133.003 107.174 133.268 107.005 133.596C106.839 133.921 106.756 134.274 106.756 134.655V135.525C106.756 136.035 106.845 136.469 107.024 136.827C107.207 137.185 107.46 137.459 107.785 137.648C108.11 137.833 108.489 137.926 108.924 137.926C109.205 137.926 109.462 137.886 109.694 137.807C109.926 137.724 110.127 137.601 110.296 137.439C110.465 137.277 110.594 137.076 110.684 136.837L112.09 137.091C111.978 137.505 111.776 137.868 111.484 138.18C111.196 138.488 110.833 138.728 110.395 138.901C109.961 139.07 109.465 139.154 108.909 139.154ZM117.051 139.154C116.335 139.154 115.71 138.99 115.177 138.662C114.643 138.334 114.229 137.875 113.934 137.285C113.639 136.695 113.491 136.005 113.491 135.217C113.491 134.424 113.639 133.732 113.934 133.138C114.229 132.545 114.643 132.085 115.177 131.756C115.71 131.428 116.335 131.264 117.051 131.264C117.767 131.264 118.392 131.428 118.925 131.756C119.459 132.085 119.873 132.545 120.168 133.138C120.463 133.732 120.611 134.424 120.611 135.217C120.611 136.005 120.463 136.695 120.168 137.285C119.873 137.875 119.459 138.334 118.925 138.662C118.392 138.99 117.767 139.154 117.051 139.154ZM117.056 137.906C117.52 137.906 117.904 137.784 118.209 137.538C118.514 137.293 118.74 136.967 118.885 136.559C119.035 136.151 119.109 135.702 119.109 135.212C119.109 134.724 119.035 134.277 118.885 133.869C118.74 133.458 118.514 133.129 118.209 132.88C117.904 132.631 117.52 132.507 117.056 132.507C116.589 132.507 116.201 132.631 115.892 132.88C115.588 133.129 115.361 133.458 115.211 133.869C115.066 134.277 114.993 134.724 114.993 135.212C114.993 135.702 115.066 136.151 115.211 136.559C115.361 136.967 115.588 137.293 115.892 137.538C116.201 137.784 116.589 137.906 117.056 137.906ZM134.551 132.129H133C132.94 131.798 132.829 131.506 132.667 131.254C132.504 131.002 132.305 130.789 132.07 130.613C131.835 130.437 131.571 130.305 131.28 130.215C130.991 130.126 130.685 130.081 130.36 130.081C129.773 130.081 129.248 130.228 128.784 130.523C128.323 130.818 127.959 131.251 127.69 131.821C127.425 132.391 127.292 133.087 127.292 133.909C127.292 134.738 127.425 135.437 127.69 136.007C127.959 136.577 128.325 137.008 128.789 137.3C129.253 137.591 129.775 137.737 130.355 137.737C130.676 137.737 130.981 137.694 131.27 137.608C131.561 137.518 131.825 137.388 132.06 137.215C132.295 137.043 132.494 136.832 132.657 136.584C132.822 136.332 132.937 136.044 133 135.719L134.551 135.724C134.468 136.224 134.307 136.685 134.069 137.106C133.833 137.523 133.53 137.885 133.159 138.19C132.791 138.491 132.37 138.725 131.896 138.891C131.422 139.056 130.905 139.139 130.345 139.139C129.463 139.139 128.678 138.93 127.988 138.513C127.299 138.092 126.755 137.49 126.358 136.708C125.963 135.926 125.766 134.993 125.766 133.909C125.766 132.822 125.965 131.889 126.363 131.11C126.76 130.328 127.304 129.728 127.993 129.31C128.683 128.889 129.467 128.679 130.345 128.679C130.885 128.679 131.389 128.757 131.856 128.913C132.327 129.065 132.749 129.29 133.124 129.589C133.499 129.884 133.808 130.245 134.054 130.673C134.299 131.097 134.465 131.582 134.551 132.129ZM136.27 139V131.364H137.707V132.577H137.786C137.925 132.166 138.171 131.843 138.522 131.607C138.877 131.369 139.278 131.249 139.725 131.249C139.818 131.249 139.927 131.253 140.053 131.259C140.182 131.266 140.284 131.274 140.356 131.284V132.706C140.297 132.689 140.191 132.671 140.038 132.651C139.886 132.628 139.733 132.616 139.581 132.616C139.23 132.616 138.916 132.691 138.641 132.84C138.369 132.986 138.154 133.19 137.995 133.452C137.836 133.71 137.756 134.005 137.756 134.337V139H136.27ZM144.661 139.154C143.908 139.154 143.26 138.993 142.717 138.672C142.176 138.347 141.759 137.891 141.464 137.305C141.172 136.715 141.026 136.024 141.026 135.232C141.026 134.449 141.172 133.76 141.464 133.163C141.759 132.567 142.17 132.101 142.697 131.766C143.227 131.432 143.847 131.264 144.556 131.264C144.987 131.264 145.405 131.335 145.809 131.478C146.213 131.621 146.576 131.844 146.898 132.149C147.219 132.454 147.473 132.85 147.658 133.337C147.844 133.821 147.937 134.41 147.937 135.102V135.629H141.867V134.516H146.48C146.48 134.125 146.401 133.778 146.242 133.477C146.082 133.172 145.859 132.931 145.57 132.756C145.285 132.58 144.951 132.492 144.566 132.492C144.149 132.492 143.784 132.595 143.472 132.8C143.164 133.003 142.926 133.268 142.756 133.596C142.591 133.921 142.508 134.274 142.508 134.655V135.525C142.508 136.035 142.597 136.469 142.776 136.827C142.959 137.185 143.212 137.459 143.537 137.648C143.862 137.833 144.241 137.926 144.676 137.926C144.957 137.926 145.214 137.886 145.446 137.807C145.678 137.724 145.879 137.601 146.048 137.439C146.217 137.277 146.346 137.076 146.435 136.837L147.842 137.091C147.73 137.505 147.528 137.868 147.236 138.18C146.948 138.488 146.585 138.728 146.147 138.901C145.713 139.07 145.217 139.154 144.661 139.154ZM151.809 139.169C151.325 139.169 150.887 139.08 150.496 138.901C150.105 138.718 149.795 138.455 149.566 138.11C149.341 137.765 149.228 137.343 149.228 136.842C149.228 136.411 149.311 136.057 149.477 135.778C149.643 135.5 149.866 135.28 150.148 135.117C150.43 134.955 150.745 134.832 151.093 134.749C151.441 134.666 151.795 134.603 152.157 134.56C152.614 134.507 152.985 134.464 153.27 134.431C153.555 134.395 153.762 134.337 153.892 134.257C154.021 134.178 154.085 134.048 154.085 133.869V133.835C154.085 133.4 153.963 133.064 153.718 132.825C153.476 132.587 153.114 132.467 152.634 132.467C152.133 132.467 151.739 132.578 151.451 132.8C151.166 133.019 150.968 133.263 150.859 133.531L149.462 133.213C149.628 132.749 149.87 132.375 150.188 132.089C150.509 131.801 150.879 131.592 151.296 131.463C151.714 131.33 152.153 131.264 152.614 131.264C152.919 131.264 153.242 131.301 153.583 131.374C153.928 131.443 154.25 131.572 154.548 131.761C154.849 131.95 155.096 132.22 155.289 132.572C155.481 132.92 155.577 133.372 155.577 133.929V139H154.125V137.956H154.066C153.969 138.148 153.825 138.337 153.633 138.523C153.441 138.708 153.194 138.862 152.892 138.985C152.591 139.108 152.229 139.169 151.809 139.169ZM152.132 137.976C152.543 137.976 152.894 137.895 153.186 137.732C153.481 137.57 153.704 137.358 153.857 137.096C154.013 136.831 154.09 136.547 154.09 136.246V135.261C154.037 135.314 153.935 135.364 153.782 135.411C153.633 135.454 153.462 135.492 153.27 135.525C153.078 135.555 152.891 135.583 152.708 135.609C152.526 135.633 152.374 135.652 152.251 135.669C151.963 135.705 151.699 135.767 151.46 135.853C151.225 135.939 151.036 136.063 150.894 136.226C150.755 136.385 150.685 136.597 150.685 136.862C150.685 137.23 150.821 137.509 151.093 137.697C151.364 137.883 151.711 137.976 152.132 137.976ZM161.122 131.364V132.557H156.95V131.364H161.122ZM158.069 129.534H159.555V136.758C159.555 137.046 159.599 137.263 159.685 137.409C159.771 137.552 159.882 137.649 160.018 137.702C160.157 137.752 160.308 137.777 160.47 137.777C160.59 137.777 160.694 137.769 160.783 137.752C160.873 137.736 160.943 137.722 160.992 137.712L161.261 138.94C161.175 138.973 161.052 139.007 160.893 139.04C160.734 139.076 160.535 139.096 160.296 139.099C159.905 139.106 159.541 139.036 159.203 138.891C158.864 138.745 158.591 138.519 158.382 138.214C158.173 137.91 158.069 137.527 158.069 137.066V129.534ZM162.766 139V131.364H164.252V139H162.766ZM163.517 130.185C163.258 130.185 163.036 130.099 162.85 129.927C162.668 129.751 162.577 129.542 162.577 129.3C162.577 129.055 162.668 128.846 162.85 128.674C163.036 128.498 163.258 128.411 163.517 128.411C163.775 128.411 163.996 128.498 164.178 128.674C164.363 128.846 164.456 129.055 164.456 129.3C164.456 129.542 164.363 129.751 164.178 129.927C163.996 130.099 163.775 130.185 163.517 130.185ZM169.469 139.154C168.753 139.154 168.128 138.99 167.595 138.662C167.061 138.334 166.647 137.875 166.352 137.285C166.057 136.695 165.909 136.005 165.909 135.217C165.909 134.424 166.057 133.732 166.352 133.138C166.647 132.545 167.061 132.085 167.595 131.756C168.128 131.428 168.753 131.264 169.469 131.264C170.185 131.264 170.81 131.428 171.343 131.756C171.877 132.085 172.291 132.545 172.586 133.138C172.881 133.732 173.028 134.424 173.028 135.217C173.028 136.005 172.881 136.695 172.586 137.285C172.291 137.875 171.877 138.334 171.343 138.662C170.81 138.99 170.185 139.154 169.469 139.154ZM169.474 137.906C169.938 137.906 170.322 137.784 170.627 137.538C170.932 137.293 171.158 136.967 171.303 136.559C171.453 136.151 171.527 135.702 171.527 135.212C171.527 134.724 171.453 134.277 171.303 133.869C171.158 133.458 170.932 133.129 170.627 132.88C170.322 132.631 169.938 132.507 169.474 132.507C169.006 132.507 168.619 132.631 168.31 132.88C168.006 133.129 167.778 133.458 167.629 133.869C167.484 134.277 167.411 134.724 167.411 135.212C167.411 135.702 167.484 136.151 167.629 136.559C167.778 136.967 168.006 137.293 168.31 137.538C168.619 137.784 169.006 137.906 169.474 137.906ZM176.174 134.466V139H174.688V131.364H176.115V132.607H176.209C176.385 132.202 176.66 131.877 177.034 131.632C177.412 131.387 177.888 131.264 178.461 131.264C178.982 131.264 179.437 131.374 179.828 131.592C180.219 131.808 180.523 132.129 180.738 132.557C180.954 132.984 181.061 133.513 181.061 134.143V139H179.575V134.322C179.575 133.768 179.431 133.336 179.142 133.024C178.854 132.709 178.458 132.552 177.954 132.552C177.609 132.552 177.303 132.626 177.034 132.776C176.769 132.925 176.559 133.143 176.403 133.432C176.251 133.717 176.174 134.062 176.174 134.466Z" fill="white"/>
</g>
<g filter="url(#filter2_d_130_3537)">
<rect x="2.07031" y="1.19531" width="317" height="67" rx="8" fill="#171717" shape-rendering="crispEdges"/>
<rect x="2.57031" y="1.69531" width="316" height="66" rx="7.5" stroke="#2F2F2F" shape-rendering="crispEdges"/>
<rect x="38.0703" y="19.1953" width="30" height="30" rx="6" fill="#181E2D"/>
<path d="M48.0703 28.1953V41.1953L58.2846 34.6953L48.0703 28.1953Z" fill="#3C82F6"/>
<path d="M87.7725 31.6882C87.7194 31.2176 87.5007 30.853 87.1162 30.5945C86.7317 30.3326 86.2478 30.2017 85.6645 30.2017C85.2469 30.2017 84.8856 30.268 84.5807 30.4006C84.2758 30.5298 84.0388 30.7088 83.8698 30.9375C83.704 31.1629 83.6212 31.4197 83.6212 31.7081C83.6212 31.95 83.6775 32.1589 83.7902 32.3345C83.9062 32.5102 84.057 32.6577 84.2426 32.777C84.4316 32.893 84.6337 32.9908 84.8492 33.0703C85.0646 33.1465 85.2718 33.2095 85.4706 33.2592L86.4649 33.5178C86.7897 33.5973 87.1228 33.705 87.4642 33.8409C87.8056 33.9768 88.1221 34.1558 88.4138 34.3778C88.7055 34.5999 88.9408 34.875 89.1198 35.2031C89.3021 35.5312 89.3932 35.924 89.3932 36.3814C89.3932 36.9581 89.2441 37.4702 88.9458 37.9176C88.6508 38.3651 88.2216 38.718 87.6581 38.9766C87.098 39.2351 86.4202 39.3643 85.6247 39.3643C84.8624 39.3643 84.2029 39.2434 83.646 39.0014C83.0892 38.7595 82.6534 38.4164 82.3385 37.9723C82.0236 37.5249 81.8496 36.9946 81.8165 36.3814H83.3577C83.3875 36.7493 83.5068 37.0559 83.7156 37.3011C83.9278 37.5431 84.1979 37.7237 84.526 37.843C84.8575 37.959 85.2204 38.017 85.6148 38.017C86.049 38.017 86.4351 37.9491 86.7732 37.8132C87.1146 37.674 87.383 37.4818 87.5786 37.2365C87.7741 36.9879 87.8719 36.6979 87.8719 36.3665C87.8719 36.0649 87.7857 35.8179 87.6134 35.6257C87.4443 35.4335 87.214 35.2744 86.9223 35.1484C86.634 35.0225 86.3075 34.9115 85.9429 34.8153L84.7398 34.4872C83.9244 34.2652 83.2781 33.9387 82.8009 33.5078C82.3269 33.0769 82.0899 32.5069 82.0899 31.7976C82.0899 31.2109 82.249 30.6989 82.5672 30.2614C82.8854 29.8239 83.3163 29.4841 83.8598 29.2422C84.4034 28.9969 85.0165 28.8743 85.6993 28.8743C86.3887 28.8743 86.9969 28.9953 87.5239 29.2372C88.0542 29.4792 88.4718 29.8123 88.7767 30.2365C89.0816 30.6574 89.2407 31.1413 89.254 31.6882H87.7725ZM94.6743 31.5589V32.7521H90.5031V31.5589H94.6743ZM91.6217 29.7294H93.1082V36.9531C93.1082 37.2415 93.1513 37.4586 93.2375 37.6044C93.3237 37.7469 93.4347 37.8447 93.5706 37.8977C93.7098 37.9474 93.8606 37.9723 94.023 37.9723C94.1423 37.9723 94.2467 37.964 94.3362 37.9474C94.4257 37.9309 94.4953 37.9176 94.545 37.9077L94.8135 39.1357C94.7273 39.1688 94.6047 39.2019 94.4456 39.2351C94.2865 39.2715 94.0876 39.2914 93.849 39.2947C93.4579 39.3014 93.0933 39.2318 92.7552 39.0859C92.4172 38.9401 92.1437 38.7147 91.9349 38.4098C91.7261 38.1049 91.6217 37.7221 91.6217 37.2614V29.7294ZM98.5409 39.3643C98.057 39.3643 97.6195 39.2749 97.2284 39.0959C96.8373 38.9136 96.5274 38.6501 96.2987 38.3054C96.0734 37.9607 95.9607 37.5381 95.9607 37.0376C95.9607 36.6068 96.0435 36.2521 96.2093 35.9737C96.375 35.6953 96.5987 35.4749 96.8804 35.3125C97.1621 35.1501 97.477 35.0275 97.825 34.9446C98.173 34.8617 98.5277 34.7988 98.8889 34.7557C99.3463 34.7027 99.7175 34.6596 100.003 34.6264C100.288 34.59 100.495 34.532 100.624 34.4524C100.753 34.3729 100.818 34.2436 100.818 34.0646V34.0298C100.818 33.5956 100.695 33.2592 100.45 33.0206C100.208 32.782 99.8468 32.6626 99.3662 32.6626C98.8657 32.6626 98.4713 32.7737 98.183 32.9957C97.8979 33.2145 97.7007 33.4581 97.5914 33.7266L96.1943 33.4084C96.3601 32.9444 96.602 32.5698 96.9202 32.2848C97.2417 31.9964 97.6112 31.7876 98.0289 31.6584C98.4465 31.5258 98.8856 31.4595 99.3463 31.4595C99.6512 31.4595 99.9744 31.496 100.316 31.5689C100.66 31.6385 100.982 31.7678 101.28 31.9567C101.582 32.1456 101.829 32.4157 102.021 32.767C102.213 33.1151 102.309 33.5675 102.309 34.1243V39.1953H100.858V38.1513H100.798C100.702 38.3435 100.558 38.5324 100.366 38.718C100.173 38.9036 99.9263 39.0578 99.6247 39.1804C99.3231 39.303 98.9619 39.3643 98.5409 39.3643ZM98.8641 38.1712C99.2751 38.1712 99.6264 38.09 99.9181 37.9276C100.213 37.7652 100.437 37.553 100.589 37.2912C100.745 37.026 100.823 36.7427 100.823 36.4411V35.4567C100.77 35.5097 100.667 35.5594 100.515 35.6058C100.366 35.6489 100.195 35.687 100.003 35.7202C99.8103 35.75 99.6231 35.7782 99.4408 35.8047C99.2585 35.8279 99.106 35.8478 98.9834 35.8643C98.695 35.9008 98.4316 35.9621 98.1929 36.0483C97.9576 36.1345 97.7687 36.2588 97.6262 36.4212C97.4869 36.5803 97.4173 36.7924 97.4173 37.0575C97.4173 37.4254 97.5532 37.7038 97.825 37.8928C98.0968 38.0784 98.4432 38.1712 98.8641 38.1712ZM104.289 39.1953V31.5589H105.726V32.772H105.806C105.945 32.361 106.19 32.0379 106.541 31.8026C106.896 31.5639 107.297 31.4446 107.745 31.4446C107.837 31.4446 107.947 31.4479 108.073 31.4545C108.202 31.4612 108.303 31.4695 108.376 31.4794V32.9013C108.316 32.8847 108.21 32.8665 108.058 32.8466C107.905 32.8234 107.753 32.8118 107.6 32.8118C107.249 32.8118 106.936 32.8864 106.661 33.0355C106.389 33.1813 106.174 33.3852 106.014 33.647C105.855 33.9055 105.776 34.2005 105.776 34.532V39.1953H104.289ZM113.678 31.5589V32.7521H109.507V31.5589H113.678ZM110.626 29.7294H112.112V36.9531C112.112 37.2415 112.155 37.4586 112.241 37.6044C112.328 37.7469 112.439 37.8447 112.574 37.8977C112.714 37.9474 112.864 37.9723 113.027 37.9723C113.146 37.9723 113.251 37.964 113.34 37.9474C113.43 37.9309 113.499 37.9176 113.549 37.9077L113.817 39.1357C113.731 39.1688 113.609 39.2019 113.449 39.2351C113.29 39.2715 113.092 39.2914 112.853 39.2947C112.462 39.3014 112.097 39.2318 111.759 39.0859C111.421 38.9401 111.148 38.7147 110.939 38.4098C110.73 38.1049 110.626 37.7221 110.626 37.2614V29.7294Z" fill="white"/>
</g>
<defs>
<filter id="filter0_d_130_3537" x="1.07031" y="199.195" width="321" height="71" filterUnits="userSpaceOnUse" color-interpolation-filters="sRGB">
<feFlood flood-opacity="0" result="BackgroundImageFix"/>
<feColorMatrix in="SourceAlpha" type="matrix" values="0 0 0 0 0 0 0 0 0 0 0 0 0 0 0 0 0 0 127 0" result="hardAlpha"/>
<feOffset dy="1"/>
<feGaussianBlur stdDeviation="1"/>
<feComposite in2="hardAlpha" operator="out"/>
<feColorMatrix type="matrix" values="0 0 0 0 0 0 0 0 0 0 0 0 0 0 0 0 0 0 0.05 0"/>
<feBlend mode="normal" in2="BackgroundImageFix" result="effect1_dropShadow_130_3537"/>
<feBlend mode="normal" in="SourceGraphic" in2="effect1_dropShadow_130_3537" result="shape"/>
</filter>
<filter id="filter1_d_130_3537" x="1.53516" y="100" width="321" height="71" filterUnits="userSpaceOnUse" color-interpolation-filters="sRGB">
<feFlood flood-opacity="0" result="BackgroundImageFix"/>
<feColorMatrix in="SourceAlpha" type="matrix" values="0 0 0 0 0 0 0 0 0 0 0 0 0 0 0 0 0 0 127 0" result="hardAlpha"/>
<feOffset dy="1"/>
<feGaussianBlur stdDeviation="1"/>
<feComposite in2="hardAlpha" operator="out"/>
<feColorMatrix type="matrix" values="0 0 0 0 0 0 0 0 0 0 0 0 0 0 0 0 0 0 0.05 0"/>
<feBlend mode="normal" in2="BackgroundImageFix" result="effect1_dropShadow_130_3537"/>
<feBlend mode="normal" in="SourceGraphic" in2="effect1_dropShadow_130_3537" result="shape"/>
</filter>
<filter id="filter2_d_130_3537" x="0.0703125" y="0.195312" width="321" height="71" filterUnits="userSpaceOnUse" color-interpolation-filters="sRGB">
<feFlood flood-opacity="0" result="BackgroundImageFix"/>
<feColorMatrix in="SourceAlpha" type="matrix" values="0 0 0 0 0 0 0 0 0 0 0 0 0 0 0 0 0 0 127 0" result="hardAlpha"/>
<feOffset dy="1"/>
<feGaussianBlur stdDeviation="1"/>
<feComposite in2="hardAlpha" operator="out"/>
<feColorMatrix type="matrix" values="0 0 0 0 0 0 0 0 0 0 0 0 0 0 0 0 0 0 0.05 0"/>
<feBlend mode="normal" in2="BackgroundImageFix" result="effect1_dropShadow_130_3537"/>
<feBlend mode="normal" in="SourceGraphic" in2="effect1_dropShadow_130_3537" result="shape"/>
</filter>
</defs>
</svg>
