<svg width="30" height="30" viewBox="0 0 30 30" fill="none" xmlns="http://www.w3.org/2000/svg">
<rect width="30" height="30" rx="6" fill="#18251F"/>
<path d="M22.0845 11.3662C22.6479 11.9296 22.6479 12.8451 22.0845 13.338L20.1127 15.3099L14.6197 9.8169L16.5915 7.84507C17.1549 7.28169 18.0704 7.28169 18.5634 7.84507L19.831 9.11268L21.9437 7L22.9296 7.98592L20.8169 10.0986L22.0845 11.3662ZM18 15.4507L17.0141 14.4648L15.0423 16.4366L13.5634 14.9577L15.5352 12.9859L14.5493 12L12.5775 13.9718L11.5211 12.9859L9.5493 14.9577C8.98592 15.5211 8.98592 16.4366 9.5493 16.9296L10.8169 18.1972L8 21.0141L8.98592 22L11.8028 19.1831L13.0704 20.4507C13.6338 21.0141 14.5493 21.0141 15.0423 20.4507L17.0141 18.4789L16.0282 17.493L18 15.4507Z" fill="#22C55D"/>
</svg>
