<svg width="30" height="30" viewBox="0 0 30 30" fill="none" xmlns="http://www.w3.org/2000/svg">
<rect width="30" height="30" rx="6" fill="#181E2D"/>
<path d="M15.15 8C15.4948 8 15.8254 8.13696 16.0692 8.38076C16.313 8.62456 16.45 8.95522 16.45 9.3C16.45 9.781 16.19 10.2035 15.8 10.4245V11.25H16.45C17.6567 11.25 18.814 11.7294 19.6673 12.5827C20.5206 13.436 21 14.5933 21 15.8H21.65C21.8224 15.8 21.9877 15.8685 22.1096 15.9904C22.2315 16.1123 22.3 16.2776 22.3 16.45V18.4C22.3 18.5724 22.2315 18.7377 22.1096 18.8596C21.9877 18.9815 21.8224 19.05 21.65 19.05H21V19.7C21 20.0448 20.863 20.3754 20.6192 20.6192C20.3754 20.863 20.0448 21 19.7 21H10.6C10.2552 21 9.92456 20.863 9.68076 20.6192C9.43696 20.3754 9.3 20.0448 9.3 19.7V19.05H8.65C8.47761 19.05 8.31228 18.9815 8.19038 18.8596C8.06848 18.7377 8 18.5724 8 18.4V16.45C8 16.2776 8.06848 16.1123 8.19038 15.9904C8.31228 15.8685 8.47761 15.8 8.65 15.8H9.3C9.3 14.5933 9.77937 13.436 10.6327 12.5827C11.486 11.7294 12.6433 11.25 13.85 11.25H14.5V10.4245C14.11 10.2035 13.85 9.781 13.85 9.3C13.85 8.95522 13.987 8.62456 14.2308 8.38076C14.4746 8.13696 14.8052 8 15.15 8ZM12.225 15.15C11.794 15.15 11.3807 15.3212 11.076 15.626C10.7712 15.9307 10.6 16.344 10.6 16.775C10.6 17.206 10.7712 17.6193 11.076 17.924C11.3807 18.2288 11.794 18.4 12.225 18.4C12.656 18.4 13.0693 18.2288 13.374 17.924C13.6788 17.6193 13.85 17.206 13.85 16.775C13.85 16.344 13.6788 15.9307 13.374 15.626C13.0693 15.3212 12.656 15.15 12.225 15.15ZM18.075 15.15C17.644 15.15 17.2307 15.3212 16.926 15.626C16.6212 15.9307 16.45 16.344 16.45 16.775C16.45 17.206 16.6212 17.6193 16.926 17.924C17.2307 18.2288 17.644 18.4 18.075 18.4C18.506 18.4 18.9193 18.2288 19.224 17.924C19.5288 17.6193 19.7 17.206 19.7 16.775C19.7 16.344 19.5288 15.9307 19.224 15.626C18.9193 15.3212 18.506 15.15 18.075 15.15Z" fill="#3C82F6"/>
</svg>
