<svg width="30" height="30" viewBox="0 0 30 30" fill="none" xmlns="http://www.w3.org/2000/svg">
<path d="M16.25 12.375H14.75V10.875H16.25V12.375ZM16.25 15.75H14.75V14.25H16.25V15.75ZM16.25 19.125H14.75V17.625H16.25V19.125ZM23 13.5V10.5C23 9.6675 22.325 9 21.5 9H9.5C9.10218 9 8.72064 9.15804 8.43934 9.43934C8.15804 9.72064 8 10.1022 8 10.5V13.5C8.8325 13.5 9.5 14.175 9.5 15C9.5 15.3978 9.34196 15.7794 9.06066 16.0607C8.77936 16.342 8.39782 16.5 8 16.5V19.5C8 19.8978 8.15804 20.2794 8.43934 20.5607C8.72064 20.842 9.10218 21 9.5 21H21.5C21.8978 21 22.2794 20.842 22.5607 20.5607C22.842 20.2794 23 19.8978 23 19.5V16.5C22.6022 16.5 22.2206 16.342 21.9393 16.0607C21.658 15.7794 21.5 15.3978 21.5 15C21.5 14.6022 21.658 14.2206 21.9393 13.9393C22.2206 13.658 22.6022 13.5 23 13.5Z" fill="white"/>
</svg>
